<!--?xml version="1.0" encoding="utf-8"?-->
<!-- Generator: Adobe Illustrator 18.0.0, SVG Export Plug-In . SVG Version: 6.00 Build 0)  -->

<svg version="1.1" id="_x31_0" xmlns="http://www.w3.org/2000/svg" xmlns:xlink="http://www.w3.org/1999/xlink" x="0px" y="0px" viewBox="0 0 512 512" style="width: 256px; height: 256px; opacity: 1;" xml:space="preserve">
<style type="text/css">
	.st0{fill:#374149;}
</style>
<g>
	<path class="st0" d="M271.357,87.384c-68.478,68.483-112.318,101.365-156.694,131.387c-7.489,5.07-12.974,12.614-15.466,21.31
		c-26.854,93.782-54.638,166.586-74.315,213.335c-6.497-0.449-13.138,1.79-18.103,6.751c-8.762,8.766-9.001,22.725-0.882,31.878
		c0.273,0.317,0.476,0.668,0.77,0.969l0.011-0.008c0.039,0.039,0.062,0.086,0.102,0.126l1.145-1.145l31.819-31.819l163.022-163.022
		c-4.77-9.998-2.043-22.686,8.266-29.566c7.548-5.035,17.713-5.098,25.303-0.129c12.884,8.434,14.189,25.881,3.926,36.148
		c-6.27,6.266-15.213,8.196-23.15,5.825c-0.066-0.02-0.13-0.047-0.192-0.066c-1.078-0.336-2.141-0.734-3.168-1.223L50.728,471.157
		l-31.815,31.816L17.881,504v0.004l0,0l-0.113,0.113c9.102,9.102,23.862,9.102,32.96,0c4.965-4.961,7.2-11.606,6.75-18.099
		c46.75-19.682,119.554-47.465,213.336-74.319c8.696-2.488,16.243-7.974,21.31-15.466c30.026-44.374,62.908-88.21,131.386-156.69
		c-32.374-32.374-76.077-76.078-76.077-76.078S303.731,119.759,271.357,87.384z" style="fill: rgb(75, 75, 75);"></path>
	<path class="st0" d="M358.763,1.056c-24.783,17.666-46.539,39.426-64.205,64.209c49.786,52.411,100.83,103.439,153.233,153.233
		c24.787-17.662,46.543-39.422,64.209-64.205C462.214,101.878,411.178,50.842,358.763,1.056z" style="fill: rgb(75, 75, 75);"></path>
</g>
</svg>
