<!--?xml version="1.0" encoding="utf-8"?-->
<!-- Generator: Adobe Illustrator 18.0.0, SVG Export Plug-In . SVG Version: 6.00 Build 0)  -->

<svg version="1.1" id="_x31_0" xmlns="http://www.w3.org/2000/svg" xmlns:xlink="http://www.w3.org/1999/xlink" x="0px" y="0px" viewBox="0 0 512 512" style="width: 256px; height: 256px; opacity: 1;" xml:space="preserve">
<style type="text/css">
	.st0{fill:#374149;}
</style>
<g>
	<polygon class="st0" points="208.539,184.838 208.539,184.994 275.695,184.994 275.695,160.744 208.539,160.744 208.539,184.763 
		208.539,184.838 	" style="fill: rgb(75, 75, 75);"></polygon>
	<polygon class="st0" points="208.539,229.763 275.695,229.763 275.695,205.514 208.539,205.514 208.539,229.533 208.539,229.603 
		208.539,229.603 	" style="fill: rgb(75, 75, 75);"></polygon>
	<rect x="39.176" y="160.744" class="st0" width="67.156" height="44.77" style="fill: rgb(75, 75, 75);"></rect>
	<path class="st0" d="M26.117,65.607L0,91.725v350.702h145.504V91.725L119.39,65.607H26.117z M119.39,117.838V272.67H26.238h-0.122
		V117.838h92.86H119.39z M96.234,359.412c0,6.699-5.426,12.125-12.125,12.125H61.394c-6.699,0-12.125-5.426-12.125-12.125
		c0-6.695,5.426-12.125,12.125-12.125H84.11C90.809,347.287,96.234,352.717,96.234,359.412z" style="fill: rgb(75, 75, 75);"></path>
	<path class="st0" d="M195.481,65.607l-26.118,26.118v350.702h145.508V91.725l-26.118-26.118H195.481z M288.754,117.838V272.67
		h-93.148h-0.125V117.838h92.863H288.754z M265.602,359.412c0,6.699-5.43,12.125-12.125,12.125h-22.719
		c-6.695,0-12.125-5.426-12.125-12.125c0-6.695,5.43-12.125,12.125-12.125h22.719C260.172,347.287,265.602,352.717,265.602,359.412z
		" style="fill: rgb(75, 75, 75);"></path>
	<path class="st0" d="M458.75,82.557l-29.782-21.848l-92.191,14.164L314.93,104.65l53.25,346.641L512,429.197L458.75,82.557z
		 M368.218,279.533l-4.656-30.312l-0.015-0.11l24.359-3.742l-3.684-23.969l-24.293,3.734l-0.066,0.008l-3.398-22.125l24.359-3.742
		l-3.683-23.969l-24.359,3.742l-8.02-52.223l-0.05-0.328l92.191-14.16l23.336,151.914l0.172,1.121l-91.898,14.118L368.218,279.533z
		 M413.191,371.638c-2.191-0.574-4.16-1.754-5.707-3.371c-0.202-0.218-0.374-0.461-0.566-0.691c-0.766-0.934-1.406-1.969-1.87-3.117
		c-0.11-0.27-0.199-0.555-0.29-0.836c-0.195-0.606-0.382-1.215-0.484-1.867c-1.016-6.618,3.527-12.809,10.144-13.825l22.454-3.449
		c1.484-0.226,2.934-0.141,4.32,0.152c0.195,0.039,0.394,0.055,0.59,0.11c2.187,0.574,4.16,1.754,5.706,3.375
		c0.203,0.214,0.371,0.453,0.559,0.683c0.77,0.934,1.414,1.973,1.878,3.122c0.114,0.273,0.195,0.55,0.29,0.832
		c0.195,0.605,0.382,1.218,0.48,1.87c1.02,6.618-3.523,12.809-10.141,13.825l-22.453,3.449c-1.485,0.226-2.93,0.141-4.317-0.148
		C413.59,371.709,413.386,371.693,413.191,371.638z" style="fill: rgb(75, 75, 75);"></path>
</g>
</svg>
