<!--?xml version="1.0" encoding="utf-8"?-->
<!-- Generator: Adobe Illustrator 18.1.1, SVG Export Plug-In . SVG Version: 6.00 Build 0)  -->

<svg version="1.1" id="_x31_0" xmlns="http://www.w3.org/2000/svg" xmlns:xlink="http://www.w3.org/1999/xlink" x="0px" y="0px" viewBox="0 0 512 512" style="width: 256px; height: 256px; opacity: 1;" xml:space="preserve">
<style type="text/css">
	.st0{fill:#374149;}
</style>
<g>
	<path class="st0" d="M313.206,210.726c0-2.226-0.485-4.34-1.348-6.254l63.566-69.91c1.89,0.821,3.973,1.278,6.16,1.278
		c8.473,0,15.348-6.875,15.348-15.344c0-8.531-6.875-15.347-15.348-15.347c-8.469,0-15.344,6.816-15.344,15.347
		c0,1.734,0.344,3.387,0.875,4.95l-64.367,70.797c-1.535-0.527-3.16-0.863-4.886-0.863c-2.168,0-4.23,0.457-6.106,1.262
		l-63.199-59.078c0.57-1.602,0.926-3.305,0.926-5.098c0-8.473-6.875-15.344-15.343-15.344c-8.473,0-15.348,6.871-15.348,15.344
		c0,1.574,0.293,3.07,0.742,4.504l-62.465,53.809c-2.008-0.973-4.262-1.535-6.653-1.535c-8.473,0-15.347,6.874-15.347,15.343
		c0,8.473,6.874,15.348,15.347,15.348c8.469,0,15.344-6.875,15.344-15.348c0-1.55-0.289-3.042-0.726-4.469l62.48-53.824
		c2.004,0.965,4.246,1.516,6.626,1.516c2.156,0,4.202-0.45,6.066-1.246l63.218,59.098c-0.554,1.598-0.906,3.29-0.906,5.066
		c0,8.469,6.875,15.344,15.344,15.344C306.33,226.07,313.206,219.195,313.206,210.726z" style="fill: rgb(75, 75, 75);"></path>
	<polygon class="st0" points="206.221,197.801 206.221,197.59 130.416,262.898 130.416,310.531 130.416,310.68 130.416,310.68 
		130.416,310.836 206.221,310.836 206.221,242.481 206.322,197.711 	" style="fill: rgb(75, 75, 75);"></polygon>
	<polygon class="st0" points="221.725,197.711 221.725,197.863 221.565,197.711 221.565,310.332 221.565,310.68 221.565,310.68 
		221.565,310.836 290.19,310.836 290.19,261.855 249.401,223.73 	" style="fill: rgb(75, 75, 75);"></polygon>
	<polygon class="st0" points="381.584,233.562 381.706,177.074 381.584,177.203 381.584,176.965 305.534,260.629 305.534,310.836 
		381.584,310.836 	" style="fill: rgb(75, 75, 75);"></polygon>
	<path class="st0" d="M397.295,0h-282.59C70.51,0,34.557,35.981,34.557,80.207v351.648c0,44.192,35.953,80.145,80.149,80.145
		h202.386c1.531,0,3.062-0.016,4.535-0.082c85.145-2.328,153.402-70.59,155.734-155.734c0.062-1.484,0.082-3.015,0.082-4.472V80.207
		C477.443,35.981,441.49,0,397.295,0z M332.627,393.742v77.175c-4.11,0.532-8.274,0.879-12.504,0.981
		c-0.973,0.058-2,0.058-3.031,0.058H114.706c-22.141,0-40.102-17.906-40.102-40.102V80.207c0-22.199,17.961-40.16,40.102-40.16
		h282.59c22.141,0,40.102,17.961,40.102,40.16v271.504c0,0.969,0,2-0.055,2.972c-0.102,4.231-0.453,8.395-0.98,12.504h-77.18
		C344.518,367.187,332.627,379.078,332.627,393.742z" style="fill: rgb(75, 75, 75);"></path>
</g>
</svg>
