<!--?xml version="1.0" encoding="utf-8"?-->
<!-- Generator: Adobe Illustrator 21.1.0, SVG Export Plug-In . SVG Version: 6.00 Build 0)  -->
<svg version="1.1" id="_x31_0" xmlns="http://www.w3.org/2000/svg" xmlns:xlink="http://www.w3.org/1999/xlink" x="0px" y="0px" viewBox="0 0 512 512" style="width: 256px; height: 256px; opacity: 1;" xml:space="preserve">
<style type="text/css">
	.st0{fill:#374149;}
</style>
<g>
	<path class="st0" d="M448.244,269.032c-15.506-83.765-82.812-128.563-99.17-140.807c-0.874-0.656-1.855-0.59-2.675-0.211
		c-0.023,0.012-0.054,0.012-0.078,0.027c-0.312,0.157-0.542,0.375-0.773,0.637c-0.039,0.047-0.102,0.066-0.137,0.114
		c-0.031,0.042-0.031,0.094-0.062,0.133c-0.18,0.262-0.305,0.523-0.379,0.847c-0.035,0.153-0.015,0.309-0.019,0.465
		c-0.016,0.282-0.125,0.531-0.039,0.836c5.206,19.13,16.658,70.505-7.471,79.809c-0.219,0.086-0.458,0.14-0.68,0.218
		c-1.511,0.523-3.156,0.89-4.948,1.074c-0.258,0.028-0.516,0.055-0.782,0.074c-2.031,0.149-4.206,0.118-6.608-0.195
		c-37.639-4.921-42.115-83.605-68.205-125.602C220.242,28.54,162.321,5.223,147.815,0.118c-1.476-0.519-2.91,0.746-2.57,2.274
		c4.022,18.165,18.642,105.195-35.581,180.539C41.659,277.433,27.49,418.58,148.706,499.42c0.16,0.109,0.328,0.214,0.492,0.324
		c6.351,4.214,12.967,8.311,20.072,12.182h35.428L236.67,512c-0.004-0.004-0.118-0.062-0.137-0.074h0.172
		c0,0-6.874-3.406-16.244-10.006c-0.183-0.129-0.344-0.23-0.527-0.367c-0.652-0.465-1.374-1.027-2.046-1.523
		c-21.169-15.63-52.286-46.286-49.43-90.287c31.093,31.066,58.616,36.237,67.228,23.738c0.039-0.054,0.07-0.109,0.106-0.164
		c0.91-1.362,1.668-2.866,2.117-4.624c6.921-27.141-41.099-37.393-52.098-71.505c-1.706-5.296-2.644-10.409-2.933-15.346
		c-0.004-0.043-0.012-0.082-0.016-0.125c-0.086-1.531,0-3.015,0.035-4.511c0.031-1.082-0.008-2.179,0.082-3.242
		c0.07-0.898,0.246-1.766,0.359-2.648c0.214-1.614,0.414-3.23,0.758-4.797c0.117-0.542,0.285-1.066,0.418-1.601
		c0.458-1.847,0.95-3.679,1.562-5.464c0.149-0.418,0.324-0.824,0.477-1.242c0.672-1.824,1.394-3.624,2.21-5.382
		c0.246-0.523,0.523-1.035,0.781-1.554c0.77-1.558,1.57-3.098,2.442-4.605c0.484-0.832,1.003-1.649,1.519-2.469
		c0.679-1.09,1.367-2.179,2.09-3.246c0.894-1.297,1.82-2.57,2.777-3.827c0.363-0.489,0.722-0.977,1.094-1.457
		c8.518-10.854,19.114-20.266,28.93-28.316c1.902-1.539,3.753-3.023,5.464-4.382c20.634,97.009,65.998,71.693,94.904,110.296
		c19.47,26.008,20.735,56.14,13.342,81.969c-0.122,0.422-0.219,0.847-0.348,1.269c-0.816,2.738-1.758,5.41-2.757,8.034
		c-0.211,0.554-0.406,1.117-0.626,1.667c-1.019,2.554-2.128,5.03-3.296,7.452c-0.254,0.531-0.504,1.07-0.766,1.598
		c-1.234,2.461-2.534,4.839-3.898,7.136c-0.226,0.386-0.454,0.773-0.688,1.152c-1.433,2.355-2.929,4.62-4.475,6.773
		c-0.195,0.269-0.387,0.53-0.582,0.796c-1.562,2.129-3.167,4.152-4.808,6.046c-0.301,0.344-0.605,0.664-0.906,1
		c-1.519,1.698-3.062,3.308-4.625,4.792c-0.835,0.781-1.687,1.48-2.538,2.203c-1.054,0.906-2.106,1.839-3.167,2.636
		c-2.09,1.542-4.206,2.93-6.347,4.05h0.125c-0.038,0.023-0.082,0.058-0.125,0.082h63.882
		C366.158,511.926,480.864,445.229,448.244,269.032z" style="fill: rgb(75, 75, 75);"></path>
</g>
</svg>
