<!--?xml version="1.0" encoding="utf-8"?-->
<!-- Generator: Adobe Illustrator 18.0.0, SVG Export Plug-In . SVG Version: 6.00 Build 0)  -->

<svg version="1.1" id="_x31_0" xmlns="http://www.w3.org/2000/svg" xmlns:xlink="http://www.w3.org/1999/xlink" x="0px" y="0px" viewBox="0 0 512 512" style="width: 256px; height: 256px; opacity: 1;" xml:space="preserve">
<style type="text/css">
	.st0{fill:#374149;}
</style>
<g>
	<path class="st0" d="M216.699,406.688l-32.321,32.109l0.528-6.539c0.82-10.078-2.18-19.976-8.082-27.695l61.145-61.058l0.046-0.043
		l0,0l0.11-0.113l-16.438-16.438l-64.386,64.301c-3.637-1.164-7.461-1.618-11.363-1.672c-0.164,0-0.325-0.035-0.485-0.035
		c-0.179,0-0.359,0.02-0.539,0.023c-0.934,0.012-1.839-0.125-2.785-0.042c-5.539,0.457-10.625-1.45-14.438-5.176
		c-3.726-3.813-5.633-8.898-5.176-14.438c0.454-5.27-0.179-10.355-1.726-15.168l63.953-63.863l0.325-0.32l0,0l0.113-0.114
		l-16.324-16.328h-0.004l0,0l-0.11-0.117l-61.304,61.214c-6.84-5.226-15.406-8.004-24.274-8.043c-0.054,0-0.106-0.011-0.156-0.011
		c-0.07,0-0.141,0.007-0.211,0.007c-1.019,0.004-2.027-0.121-3.054-0.035l-3.867,0.313l-2.734,0.11l74.461-74.367l0.046-0.047l0,0
		l0.114-0.113l-18.191-18.191l-0.039-0.039l0,0l-0.118-0.118L27.426,336.719L0,512l175.281-27.426l102.078-101.988l-18.254-18.258
		L216.699,406.688z M160.023,460.777l-98.359,15.442c-1.906-4.633-5.266-9.993-10.531-15.352
		c-5.359-5.27-10.718-8.625-15.351-10.446l15.441-98.445l29.062-2.363c5.539-0.363,10.626,1.457,14.442,5.27
		c3.813,3.726,5.629,8.898,5.172,14.351c-0.906,11.894,3.27,23.34,11.351,31.516c8.176,8.078,19.622,12.258,31.516,11.351
		c5.453-0.457,10.625,1.359,14.351,5.176c3.813,3.812,5.629,8.898,5.27,14.438L160.023,460.777z" style="fill: rgb(75, 75, 75);"></path>
	<path class="st0" d="M469.254,42.742c-40.321-40.324-91.45-54.667-114.066-31.965c-1.18,1.18-2.176,2.36-3.176,3.633
		c-2.27,0.817-4.449,2.086-6.266,3.902L234.582,129.476l18.118,18.114l0.113,0.117h0.004l0.114,0.114l60.273-60.332l32.75-32.66
		c2,9.691,5.805,20.008,11.414,30.418l-83.461,83.555l16.442,16.437l69.762-69.843l10.082-10.062
		c4.988,6.718,10.617,13.25,16.874,19.602c6.051,5.965,12.278,11.312,18.661,16.121c0.316,0.254,0.629,0.531,0.949,0.782
		l-79.41,79.496l-0.298,0.297l0,0l-0.113,0.113l16.438,16.446l83.461-83.554c8.934,4.816,17.777,8.218,26.238,10.374
		c1.406,0.387,2.812,0.805,4.21,1.129l-92.664,92.754l-0.156,0.156l0,0l-0.114,0.114l18.258,18.258l111.07-111.164
		c1.906-1.813,3.18-3.996,3.996-6.266c1.27-0.996,2.45-1.996,3.63-3.18C523.929,134.105,509.578,83.067,469.254,42.742z
		 M485.331,134.285c-0.542,1.82-1.363,3.274-2.359,4.27c-4.18,4.18-15.714,4.633-30.61-0.726
		c-13.89-4.902-30.605-14.801-47.038-31.153c-16.352-16.434-26.246-33.144-31.153-47.038c-5.363-14.895-4.906-26.43-0.726-30.606
		c0.996-1,2.453-1.821,4.27-2.359c12.715-3.727,43.59,4.629,73.289,34.324C480.698,90.696,489.054,121.571,485.331,134.285z" style="fill: rgb(75, 75, 75);"></path>
	<polygon class="st0" points="350.374,309.566 332.125,291.312 332.121,291.312 311.144,270.336 311.144,270.332 294.706,253.891 
		294.702,253.891 258.195,217.387 241.758,200.949 220.777,179.968 202.434,161.625 71.446,30.637 71.043,30.235 71.043,30.235 
		70.93,30.121 30.348,70.704 30.172,70.875 30.176,70.875 30.062,70.988 161.566,202.492 179.91,220.836 200.89,241.816 
		217.328,258.258 441.011,481.937 481.679,441.273 481.765,441.184 481.765,441.184 481.878,441.07 	" style="fill: rgb(75, 75, 75);"></polygon>
	<path class="st0" d="M408.835,64.465c-2.843,2.84-0.718,15.406,11.286,27.41c12.004,12.004,24.57,14.133,27.414,11.29
		c2.844-2.844,0.715-15.41-11.289-27.414S411.679,61.617,408.835,64.465z" style="fill: rgb(75, 75, 75);"></path>
</g>
</svg>
